<svg id="SvgjsSvg1001" width="288" height="288" xmlns="http://www.w3.org/2000/svg" version="1.1" xmlns:xlink="http://www.w3.org/1999/xlink" xmlns:svgjs="http://svgjs.com/svgjs"><defs id="SvgjsDefs1002"></defs><g id="SvgjsG1008"><svg xmlns="http://www.w3.org/2000/svg" fill-rule="evenodd" clip-rule="evenodd" image-rendering="optimizeQuality" shape-rendering="geometricPrecision" text-rendering="geometricPrecision" viewBox="0 0 200 200" width="288" height="288"><path d="M 88.5,9.5 C 95.175,9.33375 101.842,9.50042 108.5,10C 109.226,11.3974 110.393,12.2308 112,12.5C 116.628,12.9933 121.128,13.9933 125.5,15.5C 126.466,17.396 126.799,19.396 126.5,21.5C 141.153,22.5519 154.82,26.7186 167.5,34C 169.378,35.5429 170.878,37.3762 172,39.5C 173.039,47.7954 173.872,56.1287 174.5,64.5C 177.22,67.5609 177.053,70.5609 174,73.5C 173.833,75.3333 173.667,77.1667 173.5,79C 173.481,82.9664 174.481,86.6331 176.5,90C 176.532,91.9711 175.698,93.4711 174,94.5C 173.333,98.5 173.333,102.5 174,106.5C 175.698,107.529 176.532,109.029 176.5,111C 174.554,113.639 173.554,116.639 173.5,120C 173.944,123.466 174.944,126.799 176.5,130C 174.475,133.214 173.475,136.714 173.5,140.5C 173.956,144.3 174.956,147.966 176.5,151.5C 176.378,153.791 175.545,155.791 174,157.5C 173.667,163.167 173.333,168.833 173,174.5C 172.226,176.939 170.726,178.773 168.5,180C 154.718,185.465 140.384,188.465 125.5,189C 102.105,190.101 78.7718,189.435 55.5,187C 47.6279,185.782 39.9613,183.782 32.5,181C 30.3911,179.859 28.5578,178.359 27,176.5C 26.6667,170.5 26.3333,164.5 26,158.5C 23.7683,156.703 22.6017,154.37 22.5,151.5C 23.8952,147.802 25.2285,144.135 26.5,140.5C 25.6263,136.903 24.293,133.403 22.5,130C 23.9071,126.628 25.2405,123.295 26.5,120C 25.6306,116.796 24.2973,113.796 22.5,111C 22.817,108.672 23.9837,106.839 26,105.5C 27.3047,100.469 26.3047,96.1352 23,92.5C 21.8325,89.1074 22.6658,86.4408 25.5,84.5C 27.3054,79.5023 26.472,75.169 23,71.5C 21.703,67.8459 22.703,65.1792 26,63.5C 26.3333,55.8333 26.6667,48.1667 27,40.5C 30.8963,34.2929 36.3963,30.1263 43.5,28C 52.9317,24.7472 62.5983,22.5805 72.5,21.5C 72.2011,19.396 72.5344,17.396 73.5,15.5C 78.3629,13.8525 83.3629,12.8525 88.5,12.5C 88.5,11.5 88.5,10.5 88.5,9.5 Z M 86.5,15.5 C 88.0481,15.8212 88.7148,16.8212 88.5,18.5C 89.5,18.5 90.5,18.5 91.5,18.5C 91.5,17.5 91.5,16.5 91.5,15.5C 96.5,15.5 101.5,15.5 106.5,15.5C 106.5,16.5 106.5,17.5 106.5,18.5C 107.5,18.5 108.5,18.5 109.5,18.5C 109.5,17.5 109.5,16.5 109.5,15.5C 113.891,16.0085 118.225,16.8418 122.5,18C 107.167,21.3333 91.8333,21.3333 76.5,18C 79.9089,17.0042 83.2423,16.1708 86.5,15.5 Z M 75.5,20.5 C 90.834,23.1061 106.167,23.1061 121.5,20.5C 122.167,20.8333 122.833,21.1667 123.5,21.5C 122.286,23.0691 120.619,23.9024 118.5,24C 104.432,26.1621 90.4319,25.8287 76.5,23C 75.7476,22.3292 75.4142,21.4959 75.5,20.5 Z M 70.5,24.5 C 89.165,28.4257 107.832,28.4257 126.5,24.5C 139.937,25.8582 152.604,29.6915 164.5,36C 172.066,42.7169 170.733,46.3835 160.5,47C 119.833,51.6667 79.1667,51.6667 38.5,47C 35.8333,46.3333 33.1667,45.6667 30.5,45C 29.8253,42.7579 30.3253,40.5912 32,38.5C 36.6369,34.7636 41.8036,31.9303 47.5,30C 55.2527,27.9545 62.9194,26.1212 70.5,24.5 Z M 170.5,66.5 C 169.834,63.9723 169.168,61.3056 168.5,58.5C 164.562,62.4368 159.896,65.1035 154.5,66.5C 150.273,64.7571 145.939,63.4237 141.5,62.5C 140.167,62.6667 138.833,62.8333 137.5,63C 134.148,65.5325 130.481,67.3659 126.5,68.5C 122.25,66.8736 117.916,65.5403 113.5,64.5C 108.26,65.5372 103.427,67.5372 99,70.5C 95.1617,67.414 90.8284,65.414 86,64.5C 81.243,65.8768 76.5763,67.5435 72,69.5C 68.2885,68.1342 64.7885,66.3008 61.5,64C 60.1667,63.8333 58.8333,63.6667 57.5,63.5C 53.0607,64.4237 48.7274,65.7571 44.5,67.5C 39.6836,65.2535 35.3503,62.2535 31.5,58.5C 31.0799,61.6163 30.0799,64.2829 28.5,66.5C 29.4578,60.2564 29.7912,53.923 29.5,47.5C 52.6503,51.3768 75.9837,53.0435 99.5,52.5C 114.519,52.4997 129.519,51.9997 144.5,51C 153.237,50.6103 161.737,49.1103 170,46.5C 170.5,53.1583 170.666,59.825 170.5,66.5 Z M 171.5,70.5 C 170.167,76.1667 170.167,81.8333 171.5,87.5C 169.57,83.6273 168.903,79.294 169.5,74.5C 167.833,74.5 166.167,74.5 164.5,74.5C 167.251,73.8958 169.584,72.5625 171.5,70.5 Z M 29.5,71.5 C 30.7403,72.6588 32.0736,73.6588 33.5,74.5C 32.5,74.5 31.5,74.5 30.5,74.5C 30.8168,78.7016 30.4834,82.7016 29.5,86.5C 29.5,81.5 29.5,76.5 29.5,71.5 Z M 39.5,75.5 C 45.6985,75.6516 51.6985,76.3182 57.5,77.5C 51.2614,77.7236 45.2614,77.0569 39.5,75.5 Z M 151.5,76.5 C 134.393,78.7414 117.06,79.7414 99.5,79.5C 85.306,79.6071 71.306,78.9405 57.5,77.5C 88.8548,79.0213 120.188,78.6879 151.5,76.5 Z M 31.5,95.5 C 30.8333,99.5 30.1667,103.5 29.5,107.5C 29.3341,102.489 29.5007,97.4889 30,92.5C 30.5133,93.5266 31.0133,94.5266 31.5,95.5 Z M 170.5,92.5 C 170.666,97.8437 170.499,103.177 170,108.5C 170.108,103.72 169.275,99.3864 167.5,95.5C 168.5,94.5 169.5,93.5 170.5,92.5 Z M 46.5,98.5 C 64.1607,99.7441 81.8274,100.744 99.5,101.5C 117.173,100.744 134.839,99.7441 152.5,98.5C 135.066,100.857 117.399,102.19 99.5,102.5C 81.6008,102.19 63.9342,100.857 46.5,98.5 Z M 170.5,126.5 C 169.523,123.713 169.19,120.713 169.5,117.5C 168.5,117.5 167.5,117.5 166.5,117.5C 167.209,116.596 168.209,116.263 169.5,116.5C 170.636,117.681 170.969,121.014 170.5,126.5 Z M 29.5,114.5 C 30.6262,116.536 32.2929,117.87 34.5,118.5C 33.1667,118.5 31.8333,118.5 30.5,118.5C 30.8016,121.059 30.4682,123.393 29.5,125.5C 29.5,121.833 29.5,118.167 29.5,114.5 Z M 49.5,121.5 C 65.9736,122.832 82.4736,123.832 99,124.5C 115.526,123.832 132.026,122.832 148.5,121.5C 121.749,125.466 94.7485,126.299 67.5,124C 61.2793,123.729 55.2793,122.896 49.5,121.5 Z M 170.5,133.5 C 170.5,137.833 170.5,142.167 170.5,146.5C 170.11,143.203 169.11,140.203 167.5,137.5C 168.659,136.26 169.659,134.926 170.5,133.5 Z M 29.5,134.5 C 30.5,136.167 31.8333,137.5 33.5,138.5C 32.5,138.5 31.5,138.5 30.5,138.5C 30.6641,141.187 30.4974,143.854 30,146.5C 29.5012,142.514 29.3345,138.514 29.5,134.5 Z M 68.5,145.5 C 89.1667,146.833 109.833,146.833 130.5,145.5C 109.833,148.167 89.1667,148.167 68.5,145.5 Z M 170.5,155.5 C 170.666,161.509 170.499,167.509 170,173.5C 170.114,168.394 169.28,163.727 167.5,159.5C 168.659,158.26 169.659,156.926 170.5,155.5 Z M 29.5,156.5 C 30.3412,157.926 31.3412,159.26 32.5,160.5C 30.7195,164.727 29.8862,169.394 30,174.5C 29.5005,168.509 29.3338,162.509 29.5,156.5 Z M 53.5,166.5 C 58.0485,166.624 62.3819,167.291 66.5,168.5C 61.9,168.72 57.5667,168.054 53.5,166.5 Z M 66.5,168.5 C 84.8203,169.333 103.154,169.666 121.5,169.5C 114.174,170.166 106.674,170.5 99,170.5C 87.9574,170.687 77.1241,170.02 66.5,168.5 Z" opacity=".891" fill="#2d6cdf" class="color000 svgShape"></path><path d="M 170.5,66.5 C 170.842,67.3382 171.508,67.6716 172.5,67.5C 172.5,68.1667 172.5,68.8333 172.5,69.5C 171.833,69.5 171.5,69.8333 171.5,70.5C 169.584,72.5625 167.251,73.8958 164.5,74.5C 162.585,74.2155 160.919,74.5489 159.5,75.5C 156.615,75.1936 153.948,75.5269 151.5,76.5C 120.188,78.6879 88.8548,79.0213 57.5,77.5C 51.6985,76.3182 45.6985,75.6516 39.5,75.5C 37.7354,74.5386 35.7354,74.2053 33.5,74.5C 32.0736,73.6588 30.7403,72.6588 29.5,71.5C 29.1583,70.6618 28.4916,70.3284 27.5,70.5C 27.5,69.8333 27.1667,69.5 26.5,69.5C 26.5,68.8333 26.5,68.1667 26.5,67.5C 27.4916,67.6716 28.1583,67.3382 28.5,66.5C 30.0799,64.2829 31.0799,61.6163 31.5,58.5C 35.3503,62.2535 39.6836,65.2535 44.5,67.5C 48.7274,65.7571 53.0607,64.4237 57.5,63.5C 58.8333,63.6667 60.1667,63.8333 61.5,64C 64.7885,66.3008 68.2885,68.1342 72,69.5C 76.5763,67.5435 81.243,65.8768 86,64.5C 90.8284,65.414 95.1617,67.414 99,70.5C 103.427,67.5372 108.26,65.5372 113.5,64.5C 117.916,65.5403 122.25,66.8736 126.5,68.5C 130.481,67.3659 134.148,65.5325 137.5,63C 138.833,62.8333 140.167,62.6667 141.5,62.5C 145.939,63.4237 150.273,64.7571 154.5,66.5C 159.896,65.1035 164.562,62.4368 168.5,58.5C 169.168,61.3056 169.834,63.9723 170.5,66.5 Z" opacity=".887" fill="#2d6cdf" class="color000 svgShape"></path></svg></g></svg>