<svg xmlns="http://www.w3.org/2000/svg" version="1.0" width="32.000000pt" height="37.000000pt" viewBox="0 0 32.000000 37.000000" preserveAspectRatio="xMidYMid meet">

<g transform="translate(0.000000,37.000000) scale(0.100000,-0.100000)" fill="#FE4365" stroke="none">
<path d="M34 327 c-2 -7 -3 -65 -2 -128 l3 -114 30 -3 c17 -2 44 -17 63 -35 l32 -31 33 31 c18 18 45 33 62 35 l30 3 0 125 0 125 -123 3 c-95 2 -124 0 -128 -11z m114 -39 c8 -8 15 -8 27 2 12 10 18 10 30 0 23 -19 18 -43 -15 -75 l-30 -29 -30 29 c-32 31 -38 53 -18 73 15 15 21 15 36 0z m-32 -79 c28 -26 35 -89 9 -89 -8 0 -15 6 -15 13 0 8 -9 22 -20 32 -15 13 -20 31 -20 65 0 53 13 77 18 32 2 -16 14 -40 28 -53z m134 22 c0 -35 -5 -53 -20 -66 -11 -10 -20 -24 -20 -32 0 -7 -7 -13 -15 -13 -26 0 -19 63 10 90 15 15 25 34 25 52 0 17 4 27 10 23 6 -3 10 -28 10 -54z" fill="#FE4365"/>
</g>
</svg>